<svg xmlns="http://www.w3.org/2000/svg" width="24" height="24" viewBox="0 0 24 24"><defs><style>.a,.b{fill:none;}.b{stroke:#3d3d3d;stroke-linecap:round;stroke-linejoin:round;stroke-miterlimit:10;stroke-width:1.5px;}.c{}</style></defs><rect class="a" width="24" height="24"/><path  class="b" d="M1515.681,625a8,8,0,1,1,0-8v-4" transform="translate(-1496.22 -609)"/><path class="c" d="M3.17,0V-7.12H1.83L.74-6.27v1.5l1.09-.78V0ZM7.95-2.47a3.4,3.4,0,0,0-.33-1.9,1.206,1.206,0,0,0-1.04-.45,1.135,1.135,0,0,0-.51.13,1.407,1.407,0,0,0-.39.34V-5.92H7.87v-1.2H4.46v4.04H5.74v-.05c0-.33.18-.49.42-.49a.389.389,0,0,1,.36.21,3.037,3.037,0,0,1,.09,1.07,3.166,3.166,0,0,1-.12,1.22.359.359,0,0,1-.33.16c-.24,0-.42-.16-.42-.49v-.49H4.4v.28A1.579,1.579,0,0,0,4.89-.38,1.822,1.822,0,0,0,6.16.08,1.869,1.869,0,0,0,7.43-.38,2.647,2.647,0,0,0,7.95-2.47Z" transform="translate(8.26 15.52)"/><rect class="c" width="5.5" height="1.5" rx="0.75" transform="translate(17.5 11.23)"/><rect class="c" width="5.5" height="1.5" rx="0.75" transform="translate(21 9.23) rotate(90)" /></svg>