<?xml version="1.0" standalone="no"?><!DOCTYPE svg PUBLIC "-//W3C//DTD SVG 1.1//EN" "http://www.w3.org/Graphics/SVG/1.1/DTD/svg11.dtd"><svg t="1703664219110" class="icon" viewBox="0 0 1024 1024" version="1.1" xmlns="http://www.w3.org/2000/svg" p-id="7586" xmlns:xlink="http://www.w3.org/1999/xlink" width="128" height="128"><path d="M46.08 272.213333a42.666667 42.666667 0 0 0 8.96 14.08l128 128a42.666667 42.666667 0 0 0 60.586667 0 42.666667 42.666667 0 0 0 0-60.586666L188.16 298.666667H704a192.426667 192.426667 0 0 1 192 192 42.666667 42.666667 0 0 0 85.333333 0A277.76 277.76 0 0 0 704 213.333333H188.16l55.466667-55.04a42.666667 42.666667 0 0 0-60.586667-60.586666l-128 128a42.666667 42.666667 0 0 0-8.96 14.08 42.666667 42.666667 0 0 0 0 32.426666zM977.92 751.786667a42.666667 42.666667 0 0 0-8.96-14.08l-128-128a42.666667 42.666667 0 0 0-60.586667 60.586666l55.466667 55.04H320A192.426667 192.426667 0 0 1 128 533.333333a42.666667 42.666667 0 0 0-85.333333 0A277.76 277.76 0 0 0 320 810.666667h515.84l-55.466667 55.04a42.666667 42.666667 0 0 0 0 60.586666 42.666667 42.666667 0 0 0 60.586667 0l128-128a42.666667 42.666667 0 0 0 8.96-14.08 42.666667 42.666667 0 0 0 0-32.426666z" p-id="7587" fill="#3d3d3d"></path></svg>