<svg xmlns="http://www.w3.org/2000/svg" width="24" height="24" viewBox="0 0 24 24"><defs><style>.a{fill:none;}.b,.c{fill:#475266;}.c{font-size:8px;font-family:PingFangSC-Semibold, PingFang SC;font-weight:600;letter-spacing:-0.02em;}</style></defs><rect class="a" width="24" height="24"/><path class="b" d="M1530.26,598.75V604a2.5,2.5,0,0,1-2.5,2.5h-16a2.5,2.5,0,0,1-2.5-2.5V594a2.5,2.5,0,0,1,2.5-2.5h7.25a.75.75,0,0,0,.75-.75h0a.75.75,0,0,0-.75-.75h-7.25a4,4,0,0,0-4,4v10a4,4,0,0,0,4,4h16a4,4,0,0,0,4-4v-5.25a.75.75,0,0,0-.75-.75h0A.75.75,0,0,0,1530.26,598.75Z" transform="translate(-1507.76 -587)"/><text class="c" transform="translate(4 15)"><tspan x="0" y="0">倍速</tspan></text></svg>